<?xml version="1.0" standalone="no"?>
<!DOCTYPE svg PUBLIC "-//W3C//DTD SVG 20010904//EN"
 "http://www.w3.org/TR/2001/REC-SVG-20010904/DTD/svg10.dtd">
<svg version="1.0" xmlns="http://www.w3.org/2000/svg"
 width="1965.342144pt" height="1965.395243pt" viewBox="0 0 1965.342144 1965.395243"
 preserveAspectRatio="xMidYMid meet">
<metadata>
Created by potrace 1.12, written by Peter Selinger 2001-2015
</metadata>
<g transform="translate(-34.021066,1965.653797) scale(0.100000,-0.100000)"
fill="#000000" stroke="none">
<path d="M9655 19648 c-368 -19 -748 -61 -1130 -124 -87 -14 -125 -21 -344
-64 -143 -28 -432 -96 -531 -125 -25 -7 -74 -21 -110 -30 -296 -80 -609 -185
-1000 -335 -48 -18 -294 -122 -345 -145 -351 -160 -578 -274 -820 -410 -292
-165 -569 -338 -805 -503 -106 -75 -312 -224 -355 -257 -94 -73 -290 -230
-295 -235 -3 -3 -45 -39 -95 -80 -268 -222 -701 -641 -951 -920 -458 -511
-833 -1021 -1172 -1593 -62 -104 -112 -190 -112 -192 0 -2 -14 -28 -31 -57
-48 -81 -267 -516 -337 -668 -80 -176 -121 -273 -188 -444 -30 -78 -62 -157
-69 -176 -13 -33 -100 -278 -130 -365 -7 -22 -27 -85 -44 -140 -16 -55 -42
-138 -56 -185 -42 -136 -56 -192 -150 -575 -76 -311 -158 -817 -199 -1235 -46
-459 -59 -1065 -32 -1500 73 -1194 323 -2266 773 -3315 316 -738 678 -1367
1149 -2000 168 -227 401 -514 534 -660 211 -231 288 -312 430 -454 547 -545
1150 -1016 1837 -1437 281 -172 767 -429 1038 -548 61 -27 128 -57 150 -67 36
-15 233 -97 325 -134 422 -168 865 -303 1445 -440 455 -107 1192 -204 1675
-220 96 -3 233 -8 303 -11 180 -7 740 13 1007 36 321 29 621 69 940 126 195
35 567 119 710 159 25 7 74 21 110 30 747 204 1500 513 2180 895 469 263 946
583 1322 887 153 124 283 231 303 250 11 10 76 68 145 128 279 243 733 716
1021 1065 349 423 691 915 932 1339 295 521 466 882 690 1461 109 279 239 696
322 1030 74 300 99 412 149 685 20 113 71 453 80 540 3 28 12 111 21 185 50
452 64 1213 30 1672 -36 500 -97 936 -200 1428 -20 95 -102 431 -119 490 -8
25 -24 81 -36 125 -12 44 -28 98 -35 120 -7 22 -28 87 -46 145 -52 170 -66
212 -123 368 -443 1213 -1069 2258 -1934 3230 -165 185 -616 634 -787 782 -66
58 -122 107 -125 111 -9 10 -243 203 -296 244 -185 144 -459 345 -584 430
-634 428 -1297 774 -2010 1050 -19 8 -65 25 -102 39 -148 58 -602 204 -778
251 -36 10 -85 23 -110 30 -25 7 -74 20 -110 28 -36 9 -101 24 -145 35 -523
127 -1158 217 -1760 251 -189 10 -822 10 -1020 -1z m1188 -267 c360 -25 784
-80 1102 -142 561 -109 956 -217 1475 -402 175 -63 460 -176 600 -239 407
-184 775 -375 1100 -573 27 -16 71 -43 97 -59 250 -152 628 -419 948 -673 69
-54 88 -71 250 -209 249 -213 623 -577 836 -814 52 -58 99 -109 105 -115 13
-12 196 -230 280 -335 219 -272 517 -692 665 -938 24 -40 70 -117 103 -170
160 -264 398 -726 526 -1022 18 -41 38 -88 45 -105 129 -289 295 -758 399
-1125 274 -964 391 -1932 357 -2953 -6 -183 -16 -381 -21 -442 -42 -456 -73
-677 -141 -1030 -57 -296 -108 -528 -143 -645 -8 -25 -22 -74 -31 -110 -245
-904 -659 -1825 -1189 -2645 -157 -244 -423 -614 -557 -775 -21 -25 -84 -101
-141 -169 -280 -339 -542 -610 -926 -963 -486 -447 -1135 -912 -1752 -1257
-165 -93 -578 -302 -700 -355 -696 -304 -1185 -468 -1866 -626 -248 -57 -692
-132 -974 -164 -263 -30 -358 -38 -630 -52 -626 -31 -1229 -5 -1845 82 -309
43 -649 109 -950 185 -82 20 -186 47 -230 59 -44 12 -89 25 -100 27 -190 47
-715 229 -1010 351 -1026 423 -2003 1044 -2815 1790 -122 112 -459 447 -576
572 -257 275 -609 714 -830 1035 -317 459 -613 973 -812 1410 -27 61 -62 136
-76 168 -35 75 -143 338 -185 447 -18 47 -39 101 -46 120 -17 43 -61 170 -108
310 -32 95 -115 367 -131 430 -4 14 -18 68 -32 120 -35 132 -60 230 -67 265
-3 17 -15 73 -27 125 -103 476 -161 877 -202 1400 -17 222 -17 1099 0 1320 35
453 89 859 157 1190 7 36 20 101 29 145 197 958 572 1926 1095 2830 202 349
396 636 706 1044 109 144 364 448 475 566 31 33 118 125 192 205 157 168 446
441 643 607 50 42 95 81 100 87 17 20 215 178 345 277 378 287 789 556 1185
774 39 21 86 47 105 58 56 31 418 212 505 252 197 91 433 190 595 251 19 7 60
22 90 34 95 36 550 186 670 220 63 18 135 38 160 46 49 14 291 73 410 99 168
37 210 45 310 64 393 74 761 119 1175 146 227 15 1051 12 1278 -4z"/>
<path d="M10377 19290 c-125 -32 -255 -140 -315 -263 -19 -37 -46 -79 -60 -93
-117 -111 -307 -74 -368 71 -7 17 -27 44 -44 60 -26 25 -40 30 -80 30 -44 0
-54 -4 -86 -36 -54 -54 -56 -98 -9 -188 71 -134 207 -231 356 -253 213 -32
403 70 507 270 31 58 55 92 83 112 113 81 264 52 330 -65 39 -69 69 -96 117
-102 121 -16 181 104 112 224 -46 80 -128 156 -215 199 -72 35 -82 38 -183 40
-59 2 -124 -1 -145 -6z"/>
<path d="M8773 19196 c-81 -30 -155 -78 -202 -132 -44 -50 -100 -158 -108
-210 -9 -54 -61 -125 -113 -154 -37 -20 -58 -25 -116 -25 -61 1 -78 5 -113 28
-22 15 -53 45 -67 67 -35 53 -64 70 -122 70 -38 0 -55 -6 -81 -28 -28 -23 -34
-36 -38 -79 -5 -43 -1 -59 20 -95 90 -154 305 -251 484 -218 191 35 353 186
393 367 17 73 63 129 135 163 89 43 182 16 274 -80 57 -59 58 -60 114 -60 48
0 59 4 86 30 75 75 36 188 -99 289 -88 66 -147 85 -275 88 -95 2 -118 0 -172
-21z"/>
<path d="M11950 19099 c-108 -21 -218 -100 -319 -228 -40 -51 -117 -91 -176
-91 -90 0 -193 79 -216 165 -25 91 -62 125 -138 125 -37 0 -49 -6 -82 -39 -35
-34 -39 -44 -39 -87 1 -60 44 -165 96 -234 98 -129 292 -207 444 -180 144 26
240 86 335 207 73 93 100 108 200 108 72 0 84 -3 123 -29 45 -30 81 -84 102
-148 37 -118 202 -119 240 -2 24 72 -32 206 -125 300 -116 117 -278 166 -445
133z"/>
<path d="M7290 18863 c-8 -3 -39 -14 -67 -25 -78 -29 -165 -98 -214 -169 -48
-72 -89 -188 -89 -256 0 -63 -41 -136 -100 -176 -37 -26 -57 -32 -112 -35 -78
-5 -121 13 -196 79 -38 33 -52 39 -90 39 -38 0 -50 -5 -83 -39 -33 -32 -39
-45 -39 -80 0 -55 19 -90 76 -140 220 -194 578 -141 728 107 40 67 76 177 76
236 1 111 110 216 224 216 49 0 120 -31 161 -69 85 -81 208 -49 222 57 8 59
-1 83 -49 131 -92 91 -195 131 -337 130 -53 0 -103 -3 -111 -6z"/>
<path d="M12609 18753 c-42 -25 -59 -64 -59 -130 0 -165 108 -330 267 -409
180 -89 392 -57 540 80 77 71 129 96 195 96 102 -1 186 -62 212 -153 8 -29 20
-71 26 -94 14 -54 59 -88 117 -88 51 0 91 27 116 78 18 36 18 41 2 119 -9 45
-25 100 -37 122 -103 206 -337 317 -551 261 -84 -22 -145 -56 -219 -123 -81
-73 -137 -97 -213 -89 -108 11 -187 95 -203 216 -8 56 -14 69 -45 98 -30 27
-45 33 -79 33 -24 0 -55 -8 -69 -17z"/>
<path d="M9570 18471 c-517 -39 -987 -112 -1458 -227 -211 -51 -224 -55 -452
-124 -333 -100 -734 -248 -974 -359 -33 -15 -90 -41 -126 -56 -136 -60 -503
-249 -687 -355 -496 -283 -937 -598 -1401 -998 -175 -150 -660 -632 -793 -787
-51 -60 -100 -116 -107 -124 -7 -7 -50 -58 -95 -114 -920 -1125 -1538 -2437
-1808 -3837 -56 -294 -99 -591 -119 -825 -6 -66 -16 -172 -22 -235 -7 -69 -11
-306 -11 -595 0 -414 3 -513 22 -720 54 -594 135 -1046 287 -1610 165 -608
446 -1289 789 -1910 244 -442 667 -1043 999 -1420 33 -38 97 -110 141 -160
132 -148 509 -521 675 -666 259 -226 409 -345 730 -581 195 -143 565 -374 845
-528 288 -158 720 -362 975 -460 311 -119 574 -209 795 -270 44 -12 100 -28
125 -36 77 -23 370 -92 495 -118 631 -128 1142 -180 1775 -180 580 0 972 37
1645 154 28 5 93 18 145 30 52 12 122 27 155 34 205 46 567 146 775 216 132
45 238 82 270 94 19 8 53 21 75 29 440 166 957 416 1357 656 15 9 64 38 110
66 152 91 476 312 659 450 149 112 389 302 409 325 3 3 41 36 85 74 118 102
185 164 338 314 372 365 620 646 905 1024 510 678 926 1448 1219 2258 48 131
160 479 176 545 2 11 15 56 27 100 131 475 219 959 270 1490 48 506 46 1145
-6 1645 -33 322 -69 568 -125 850 -17 86 -27 133 -73 335 -68 295 -210 753
-328 1060 -436 1127 -1084 2131 -1919 2976 -291 294 -434 424 -734 670 -643
525 -1452 998 -2250 1314 -215 85 -561 205 -725 251 -466 132 -813 207 -1240
268 -119 17 -133 19 -325 40 -422 46 -1073 58 -1495 27z m1235 -260 c343 -32
487 -50 725 -87 128 -20 412 -76 510 -100 30 -7 103 -25 161 -39 733 -174
1573 -520 2264 -933 605 -361 1145 -782 1649 -1286 180 -181 409 -431 521
-571 28 -34 84 -105 125 -156 411 -513 830 -1203 1080 -1779 18 -41 43 -97 55
-125 192 -427 407 -1120 509 -1640 138 -701 190 -1388 156 -2055 -25 -497 -91
-996 -186 -1415 -31 -140 -85 -361 -98 -405 -8 -25 -21 -72 -31 -105 -178
-630 -475 -1330 -798 -1880 -20 -33 -52 -89 -73 -125 -21 -36 -45 -76 -55 -90
-9 -14 -61 -92 -114 -175 -703 -1082 -1669 -2004 -2790 -2662 -399 -234 -906
-475 -1325 -630 -296 -109 -783 -256 -1005 -303 -22 -5 -85 -18 -140 -30 -591
-129 -1135 -185 -1780 -185 -630 0 -1082 45 -1710 171 -124 25 -479 112 -590
145 -172 51 -197 58 -320 99 -211 69 -500 176 -620 230 -11 5 -54 23 -95 41
-709 302 -1462 769 -2076 1287 -354 299 -769 715 -1024 1027 -36 44 -94 116
-131 160 -309 378 -652 908 -903 1395 -201 390 -363 775 -516 1230 -51 152
-148 496 -180 640 -111 491 -154 754 -200 1220 -47 471 -36 1219 25 1745 45
385 143 894 231 1200 117 411 204 667 329 976 541 1330 1435 2520 2569 3418
524 416 1104 772 1716 1053 154 71 383 169 440 188 14 5 50 18 80 30 290 112
716 243 1020 314 457 108 905 176 1350 206 91 6 174 13 185 15 48 8 952 -4
1060 -14z"/>
<path d="M8745 17480 c-318 -78 -634 -208 -906 -371 -198 -119 -350 -239 -524
-413 -182 -183 -323 -370 -433 -576 l-50 -92 -16 54 c-76 262 -76 597 0 843
16 53 29 88 64 174 29 71 21 119 -26 161 -56 49 -104 52 -159 8 -54 -43 -125
-234 -171 -463 -27 -138 -25 -471 5 -620 32 -162 66 -272 128 -421 l34 -81
-29 -109 c-76 -280 -96 -452 -89 -738 3 -116 8 -221 12 -232 8 -25 1 -28 -163
-69 -266 -67 -598 -74 -847 -19 -350 78 -637 270 -784 524 -60 105 -63 92 41
194 190 187 395 301 648 362 114 27 355 25 475 -4 105 -25 170 -49 265 -97 79
-40 121 -44 168 -15 34 21 62 71 62 111 0 44 -32 90 -84 120 -82 47 -247 108
-369 135 -154 35 -389 37 -547 5 -591 -122 -1078 -590 -1249 -1201 -37 -133
-52 -241 -58 -405 -4 -134 -1 -181 16 -290 37 -222 100 -411 201 -601 l49 -92
-97 -64 c-152 -102 -295 -220 -444 -366 l-138 -136 -26 60 c-34 77 -98 279
-117 374 -9 41 -24 134 -33 205 -17 122 -20 132 -49 162 -41 41 -78 50 -129
32 -52 -18 -86 -67 -86 -123 0 -53 25 -241 44 -331 38 -176 109 -380 182 -521
l42 -80 -22 -30 c-13 -16 -56 -81 -95 -144 -187 -298 -324 -660 -387 -1017
-13 -79 -13 -92 1 -128 19 -52 58 -75 123 -75 43 0 55 5 80 30 28 27 52 96 52
146 0 8 14 71 31 140 56 231 126 415 234 620 57 109 132 230 141 227 3 -1 48
-42 99 -92 384 -373 920 -446 1417 -193 116 59 187 106 306 200 l92 74 100
-31 c54 -18 115 -35 135 -38 46 -7 52 -19 17 -31 -23 -8 -242 -106 -397 -177
-27 -12 -97 -44 -155 -70 -182 -82 -600 -289 -725 -360 -796 -449 -1184 -897
-1301 -1505 -8 -41 -14 -92 -14 -113 0 -105 102 -169 187 -117 47 28 58 53 82
184 60 317 199 566 458 817 344 333 741 560 1838 1049 127 57 293 132 370 168
l140 66 230 1 c329 3 582 30 925 102 109 23 453 112 492 128 13 5 19 0 23 -22
4 -15 11 -41 16 -58 5 -16 18 -77 29 -135 36 -180 38 -647 4 -819 -5 -21 -10
-28 -18 -22 -6 5 -69 38 -141 74 -316 159 -606 257 -925 314 -139 25 -592 24
-745 0 -449 -73 -820 -216 -1171 -453 -221 -148 -385 -295 -543 -484 -563
-674 -723 -1514 -468 -2461 21 -79 43 -117 80 -139 42 -26 86 -25 128 3 61 41
71 87 43 192 -79 295 -109 511 -109 785 1 518 147 962 449 1365 135 180 407
430 606 557 235 150 543 281 783 334 233 51 280 56 533 61 238 5 258 4 400
-21 82 -15 171 -32 199 -40 l50 -13 -66 -12 c-36 -6 -73 -11 -82 -11 -41 0
-263 -77 -362 -125 -284 -139 -515 -376 -661 -678 -158 -329 -224 -721 -202
-1209 12 -273 71 -706 104 -756 21 -32 73 -62 109 -62 37 0 88 30 111 65 19
29 15 109 -10 232 -62 292 -80 827 -37 1088 22 135 25 152 68 300 164 572 616
917 1203 917 282 0 579 -85 807 -230 92 -60 123 -89 102 -96 -8 -3 -50 -17
-94 -31 -388 -128 -666 -438 -765 -853 -26 -107 -25 -131 3 -173 44 -66 144
-76 197 -19 18 19 31 52 44 111 90 401 360 659 770 734 l99 18 52 -55 c97
-103 227 -285 302 -423 254 -462 358 -941 337 -1544 -15 -437 -9 -533 43 -743
l17 -66 -41 -89 c-103 -221 -148 -433 -148 -708 0 -88 6 -207 14 -265 l13
-105 -67 -90 c-379 -508 -473 -1013 -275 -1475 18 -41 37 -81 43 -88 5 -7 8
-14 6 -16 -46 -35 -245 -147 -459 -256 -398 -203 -679 -377 -915 -565 l-108
-86 -31 38 c-77 96 -222 240 -313 310 -250 195 -486 247 -681 151 -120 -59
-215 -183 -253 -331 -46 -175 -8 -266 112 -267 48 0 59 4 81 28 37 39 48 65
48 114 0 68 30 138 81 190 40 40 53 47 100 53 70 8 138 -7 219 -51 125 -68
253 -180 381 -330 l71 -84 -53 -57 c-230 -252 -355 -549 -336 -799 5 -67 4
-74 -11 -70 -9 2 -44 7 -77 11 -104 11 -245 62 -327 117 -111 76 -173 147
-232 264 -39 79 -55 135 -66 241 -9 84 -28 119 -77 139 -74 32 -165 -16 -179
-94 -9 -45 19 -216 47 -298 129 -365 471 -609 886 -631 67 -3 125 -9 130 -12
4 -3 26 -33 47 -66 52 -80 124 -154 221 -230 100 -78 183 -125 221 -125 65 0
129 66 128 131 -2 49 -31 89 -96 130 -70 44 -193 145 -212 174 -15 23 -15 23
27 30 86 13 205 50 432 132 22 8 109 47 192 88 l153 74 102 -65 c587 -371
1187 -403 1663 -89 145 96 270 228 352 373 l30 53 28 -48 c154 -266 421 -467
734 -550 407 -108 901 -2 1320 284 l63 44 122 -60 c218 -107 416 -180 594
-222 56 -13 102 -26 102 -30 0 -13 -126 -124 -185 -164 -128 -85 -154 -129
-119 -206 22 -51 80 -84 131 -76 90 15 334 218 429 358 l46 66 122 6 c184 9
343 55 495 146 85 50 217 173 277 257 97 136 164 330 164 477 0 66 -3 79 -25
106 -78 92 -225 43 -225 -75 0 -100 -48 -248 -112 -343 -111 -166 -307 -282
-515 -306 -32 -4 -66 -9 -77 -12 -17 -5 -18 -1 -12 60 8 68 -5 188 -30 284
-38 148 -145 336 -281 496 -89 104 -95 80 66 248 132 139 228 214 336 265 68
33 89 38 150 39 61 0 77 -4 113 -27 58 -39 92 -102 106 -201 7 -45 18 -91 24
-103 31 -59 136 -74 191 -28 40 34 51 76 41 166 -34 293 -267 487 -538 448
-175 -25 -349 -123 -546 -310 -44 -41 -180 -195 -203 -229 -1 -2 -16 7 -32 20
-298 242 -602 433 -1041 654 -153 77 -410 222 -410 232 0 3 11 28 25 55 45 89
84 217 106 341 45 255 1 523 -130 802 -59 124 -142 262 -231 380 l-67 90 13
90 c20 142 18 428 -5 565 -32 187 -57 273 -127 419 -39 82 -43 99 -35 125 54
168 69 368 52 691 -19 371 15 732 99 1040 56 209 167 479 218 533 17 18 34 49
38 67 10 56 162 277 292 425 l39 44 94 -17 c231 -44 377 -114 517 -251 135
-130 205 -256 258 -465 28 -111 43 -138 92 -158 66 -27 137 0 167 64 17 35 17
41 1 115 -94 438 -375 761 -776 894 -47 15 -86 29 -88 30 -13 8 42 61 102 98
429 268 980 303 1397 90 308 -158 527 -452 628 -845 59 -226 66 -292 65 -649
-1 -311 -3 -348 -28 -515 -15 -99 -32 -198 -37 -220 -6 -22 -12 -65 -12 -96
-2 -66 19 -104 68 -125 93 -39 172 12 190 121 3 22 12 78 20 125 44 268 65
500 64 730 0 530 -116 951 -355 1288 -70 97 -236 258 -338 326 -184 124 -391
205 -606 237 l-85 12 55 13 c30 8 119 25 198 39 195 34 507 36 706 4 448 -72
804 -219 1156 -478 278 -204 527 -501 684 -817 155 -311 225 -627 226 -1012 0
-258 -26 -465 -88 -692 -34 -124 -39 -217 -14 -246 23 -27 74 -54 102 -54 34
0 87 27 104 53 15 23 29 67 62 197 132 527 125 1051 -20 1515 -178 568 -555
1053 -1076 1382 -325 205 -670 335 -1075 404 -112 19 -167 22 -405 23 -281 0
-350 -6 -545 -51 -241 -54 -580 -183 -814 -309 -62 -34 -86 -42 -91 -33 -35
56 -46 565 -16 754 15 100 53 270 62 287 2 3 25 0 51 -8 462 -141 921 -214
1378 -218 238 -2 241 -3 291 -29 29 -14 117 -55 195 -91 79 -35 176 -78 214
-96 39 -18 104 -47 145 -65 41 -18 100 -44 130 -58 93 -43 202 -92 260 -117
141 -62 621 -309 759 -391 531 -315 831 -624 984 -1014 27 -68 45 -136 62
-235 10 -52 19 -105 21 -117 5 -28 59 -81 90 -89 67 -17 147 34 160 102 12 63
-42 302 -101 449 -62 153 -128 271 -231 412 -74 101 -291 318 -419 419 -298
235 -746 486 -1360 761 -55 24 -127 57 -160 73 -33 15 -107 48 -165 73 -156
68 -187 85 -170 90 8 2 72 21 142 42 l127 38 72 -61 c395 -335 886 -447 1302
-297 169 61 352 180 476 309 35 37 65 66 66 64 1 -2 26 -41 54 -87 91 -145
194 -364 251 -531 37 -111 62 -211 106 -422 21 -100 49 -128 129 -128 67 0
111 32 121 88 13 66 -40 325 -104 517 -86 258 -190 471 -338 695 l-63 95 54
110 c54 109 130 328 160 458 26 118 57 356 51 390 -4 19 -21 48 -42 68 -30 29
-42 34 -84 34 -42 0 -54 -5 -84 -34 -21 -21 -38 -47 -40 -65 -43 -307 -56
-371 -105 -522 -25 -77 -75 -201 -85 -211 -2 -2 -61 54 -132 124 -145 144
-283 258 -439 364 -58 39 -105 74 -103 77 2 4 31 62 65 129 68 133 129 303
164 458 18 82 23 140 26 315 4 200 3 224 -21 340 -27 136 -67 264 -115 376
-47 109 -153 288 -216 363 -213 257 -397 400 -657 511 -190 82 -341 112 -553
113 -229 0 -390 -36 -591 -132 -117 -56 -144 -85 -144 -154 0 -52 30 -96 80
-117 40 -17 68 -10 185 43 55 26 145 59 200 73 90 25 117 27 265 28 138 0 180
-4 255 -23 250 -63 448 -177 634 -364 83 -84 83 -85 72 -117 -19 -57 -117
-193 -192 -267 -118 -118 -286 -221 -452 -277 -186 -62 -345 -86 -560 -86
-204 1 -374 25 -555 79 l-74 22 8 52 c4 29 7 151 7 272 0 252 -13 362 -73 605
l-38 155 30 70 c170 388 211 803 118 1185 -24 101 -73 240 -102 292 -26 47
-79 88 -115 88 -64 0 -133 -69 -133 -133 0 -13 17 -65 38 -117 120 -296 138
-626 52 -945 -21 -77 -27 -93 -33 -84 -2 2 -18 33 -37 69 -52 101 -135 232
-217 343 -90 121 -373 407 -490 495 -224 167 -455 299 -683 392 -30 12 -66 26
-80 32 -123 50 -427 140 -476 140 -99 0 -158 -110 -104 -197 24 -38 31 -41
216 -94 77 -22 176 -53 220 -70 147 -55 354 -148 354 -160 0 -3 -35 -26 -76
-51 -231 -138 -484 -380 -634 -608 l-54 -84 -19 24 c-74 93 -141 168 -236 262
-61 60 -111 112 -111 116 0 3 -19 17 -42 30 -24 13 -77 47 -118 76 -88 60
-210 124 -240 124 -29 0 -70 -23 -100 -55 -19 -21 -25 -37 -25 -74 0 -61 23
-94 85 -126 28 -14 50 -29 50 -33 -1 -4 -30 -25 -67 -47 -86 -52 -239 -202
-295 -290 -42 -65 -118 -215 -118 -232 0 -4 -8 -30 -18 -56 l-19 -49 -23 74
c-69 220 -233 434 -423 552 -42 26 -77 50 -77 51 0 2 23 16 51 31 57 31 79 65
79 121 0 50 -18 82 -60 111 -48 33 -92 25 -193 -33 -126 -73 -221 -142 -321
-234 -100 -92 -251 -253 -288 -306 -12 -19 -25 -35 -28 -35 -3 0 -15 17 -27
39 -49 85 -182 252 -277 347 -117 117 -215 196 -362 291 l-105 68 103 48 c105
50 208 91 333 133 112 38 127 43 225 69 124 32 154 60 154 140 0 48 -4 59 -30
85 -43 44 -77 50 -159 30z m-754 -733 c322 -188 556 -421 701 -697 l32 -62
-43 -76 c-132 -238 -255 -535 -323 -782 -43 -159 -91 -387 -103 -496 -4 -33
-10 -66 -15 -74 -18 -29 -421 209 -603 357 -63 52 -67 57 -54 77 115 175 168
277 221 425 36 101 76 273 76 328 0 88 -76 146 -160 123 -62 -17 -78 -44 -110
-186 -29 -128 -45 -178 -90 -284 -28 -63 -115 -219 -134 -238 -11 -11 -27 3
-94 81 -109 126 -203 253 -268 362 -60 101 -60 87 -4 215 126 290 345 591 579
795 87 76 251 204 262 205 3 0 61 -33 130 -73z m4644 -46 c150 -117 346 -326
466 -496 85 -120 184 -303 238 -441 l32 -80 -51 -87 c-62 -106 -177 -261 -252
-342 -30 -33 -66 -73 -79 -88 l-24 -28 -42 64 c-94 143 -157 298 -199 486 -13
62 -29 121 -34 131 -28 52 -127 71 -178 33 -15 -11 -36 -35 -46 -53 -19 -32
-19 -35 -2 -124 45 -230 132 -448 250 -623 31 -46 56 -85 56 -87 0 -15 -238
-185 -402 -287 -56 -35 -268 -142 -272 -138 -2 2 -8 45 -15 94 -13 92 -51 287
-75 385 -74 294 -190 594 -323 835 -36 66 -66 127 -65 135 1 18 88 173 129
228 165 225 374 406 632 549 l94 52 46 -31 c25 -18 78 -57 116 -87z m-3199
-317 c22 -9 66 -29 98 -46 326 -164 476 -546 437 -1116 -7 -103 -17 -209 -22
-237 -5 -27 -14 -79 -19 -115 -5 -36 -17 -98 -26 -138 l-16 -72 -58 97 c-151
253 -355 440 -622 569 -87 41 -98 50 -98 73 0 14 -7 91 -15 171 -13 133 -30
218 -68 340 -13 44 -13 46 16 90 54 81 148 193 251 298 55 56 101 102 102 102
1 0 19 -7 40 -16z m1605 -81 c89 -91 190 -212 248 -297 36 -53 37 -41 -1 -161
-23 -76 -49 -241 -55 -357 -3 -71 -10 -128 -15 -128 -18 0 -174 -83 -252 -134
-193 -125 -363 -311 -476 -518 l-28 -51 -11 54 c-59 293 -76 443 -75 684 0
208 13 319 54 452 45 146 134 299 220 377 76 69 244 165 290 166 9 0 54 -39
101 -87z m-2197 -896 c0 -165 -4 -221 -22 -307 -40 -200 -94 -358 -192 -568
l-54 -114 -35 7 c-20 4 -40 10 -45 15 -14 13 32 305 78 498 51 213 136 452
236 665 27 56 34 12 34 -196z m2690 180 c128 -289 201 -507 251 -751 28 -133
55 -309 55 -357 0 -41 -3 -48 -24 -53 -13 -3 -31 -8 -38 -11 -27 -11 -176 337
-228 531 -41 152 -60 292 -60 445 0 146 7 239 19 239 3 0 14 -19 25 -43z
m-4634 -262 c34 -55 143 -191 230 -286 l79 -86 -51 -44 c-87 -75 -299 -219
-323 -219 -12 0 -4 401 10 499 20 143 25 171 30 171 2 0 13 -16 25 -35z m6600
-230 c11 -143 12 -285 2 -357 l-7 -47 -85 51 c-91 55 -223 152 -254 187 -19
21 -19 21 35 78 67 71 182 209 234 282 l39 55 13 -60 c7 -32 17 -117 23 -189z
m-4325 -41 c242 -141 407 -333 524 -607 53 -124 57 -144 34 -151 -47 -14 -289
-28 -388 -22 -200 12 -490 52 -513 71 -2 2 13 37 32 79 102 218 164 401 206
614 7 34 16 62 19 62 4 0 42 -21 86 -46z m2116 -127 c36 -155 105 -346 181
-501 21 -44 37 -80 35 -82 -8 -9 -162 -37 -272 -51 -203 -25 -580 -21 -624 7
-17 10 13 100 74 222 127 253 287 422 519 550 l51 27 8 -42 c4 -23 16 -82 28
-130z m-6665 -104 c114 -162 300 -320 483 -412 78 -40 223 -99 276 -112 409
-106 764 -105 1162 2 87 23 93 23 93 5 0 -8 21 -76 46 -153 43 -130 155 -377
205 -452 22 -33 22 -34 4 -27 -40 15 -194 48 -320 68 -193 31 -640 31 -840 0
-377 -58 -670 -146 -993 -298 l-112 -53 -17 32 c-74 140 -105 210 -144 330
-93 286 -92 618 2 900 31 90 94 237 103 237 2 0 26 -30 52 -67z m11185 -30
c92 -211 122 -357 122 -593 0 -195 -17 -301 -74 -472 -31 -93 -99 -246 -135
-304 l-20 -32 -39 20 c-74 36 -310 137 -380 162 -220 78 -436 131 -685 168
-192 29 -656 31 -815 5 -127 -22 -247 -46 -307 -63 -27 -7 -48 -11 -48 -8 0 2
12 23 26 45 84 133 202 419 239 580 l6 26 82 -24 c320 -93 710 -108 1035 -38
216 46 461 157 625 282 88 67 215 198 267 276 25 36 48 67 51 67 4 0 26 -44
50 -97z m-8311 -94 c186 -145 404 -280 618 -381 l102 -48 0 -202 0 -201 -62
-81 c-84 -109 -229 -277 -356 -413 l-104 -112 -47 38 c-25 21 -86 66 -136 99
-153 102 -305 272 -420 467 -87 147 -189 402 -209 520 l-7 40 83 43 c143 73
267 158 378 260 30 27 60 47 65 44 6 -3 48 -36 95 -73z m5518 11 c98 -91 293
-217 440 -286 4 -2 -37 -151 -65 -234 -39 -116 -134 -304 -213 -423 -84 -125
-246 -296 -335 -352 -33 -21 -93 -63 -134 -94 l-73 -55 -92 94 c-107 112 -241
265 -352 406 l-79 100 3 200 3 199 157 76 c86 42 215 113 286 158 127 80 333
228 356 256 7 8 17 15 22 15 6 0 40 -27 76 -60z m-2782 -223 c13 -59 24 -108
24 -110 0 -1 -40 -2 -88 -2 l-89 -1 17 61 c18 66 41 165 61 265 l13 65 19 -85
c10 -47 29 -133 43 -193z m-8 -378 c26 -7 48 -13 50 -14 2 -2 -4 -43 -12 -91
-35 -205 -45 -508 -25 -819 l11 -175 -38 -79 -38 -80 -41 84 c-42 84 -42 84
-32 152 6 37 11 214 11 393 1 263 -2 349 -17 450 -10 69 -20 134 -23 146 -5
18 1 22 38 31 59 14 63 15 116 2z m-1368 -33 c233 -46 388 -59 633 -54 l224 4
-17 -55 c-38 -123 -162 -469 -176 -492 -2 -4 -26 -2 -52 6 -114 33 -308 41
-483 19 -99 -12 -303 -62 -408 -99 -24 -8 -45 -15 -47 -15 -1 0 -6 26 -9 58
-4 31 -13 98 -21 147 -8 50 -14 116 -14 147 0 54 4 63 58 140 32 46 78 116
102 156 37 59 49 72 65 67 11 -3 76 -16 145 -29z m2842 -64 c29 -45 75 -113
101 -151 l48 -70 -11 -108 c-5 -59 -16 -146 -23 -193 -16 -100 -5 -96 -157
-52 -255 74 -460 95 -660 69 -64 -9 -128 -20 -143 -26 -16 -6 -29 -7 -32 -1
-10 17 -94 249 -150 416 -19 55 -37 107 -40 116 -5 13 22 14 222 10 173 -3
262 0 368 12 134 16 395 62 404 72 7 7 17 -5 73 -94z m-1184 -447 c12 -33 33
-91 47 -129 14 -38 24 -70 23 -71 -2 0 -19 -12 -38 -26 -19 -14 -41 -29 -47
-33 -10 -6 -13 29 -13 160 0 92 2 165 4 163 2 -2 13 -31 24 -64z m-660 -185
l-3 -81 -35 26 c-19 15 -41 30 -48 34 -10 6 -5 29 23 107 65 176 60 170 63 77
2 -46 2 -119 0 -163z m-3763 108 c-7 -25 -12 -39 -75 -198 -103 -258 -269
-541 -417 -709 l-38 -43 -81 40 c-97 49 -267 162 -344 228 -75 64 -288 279
-328 331 l-32 41 67 32 c224 106 443 180 712 241 105 23 358 56 449 58 93 2
94 2 87 -21z m485 -9 c147 -24 288 -60 398 -99 134 -49 337 -154 440 -227 l93
-66 -33 -35 c-46 -48 -243 -195 -396 -295 -145 -96 -401 -242 -602 -342 -124
-62 -140 -68 -193 -66 -81 2 -343 53 -449 87 -16 5 -13 12 21 52 100 121 233
340 326 537 45 93 144 346 175 442 l13 42 46 -5 c25 -3 98 -14 161 -25z m7421
-80 c112 -327 267 -632 436 -857 40 -53 69 -100 65 -103 -20 -19 -357 -87
-447 -90 -58 -2 -69 2 -215 75 -275 138 -570 312 -745 439 -103 74 -265 207
-265 216 0 22 171 136 305 203 231 116 449 178 775 221 51 6 54 2 91 -104z
m584 85 c237 -37 439 -89 656 -170 130 -48 309 -129 309 -140 0 -3 -31 -44
-70 -89 -127 -150 -303 -305 -460 -407 -127 -82 -238 -141 -252 -132 -59 37
-252 322 -352 522 -68 135 -176 400 -176 431 0 12 21 13 122 7 68 -3 168 -13
223 -22z m-6266 -324 c11 -41 31 -119 56 -210 10 -36 28 -98 41 -139 14 -41
23 -75 21 -77 -5 -6 -104 -47 -180 -75 l-77 -28 -36 71 c-48 95 -134 228 -201
311 l-55 67 23 29 c13 16 96 108 184 205 l160 177 28 -148 c15 -81 32 -164 36
-183z m3807 283 c32 -40 175 -198 298 -330 l30 -33 -30 -32 c-72 -77 -188
-253 -245 -370 -16 -33 -27 -45 -38 -41 -54 18 -227 87 -235 94 -5 4 1 37 13
76 39 124 81 275 81 291 0 8 8 24 17 35 12 13 19 38 20 76 1 32 9 95 17 140 9
46 16 96 16 112 0 16 4 29 9 29 5 0 26 -21 47 -47z m-2788 -193 c40 -5 77 -12
82 -15 8 -5 -72 -209 -159 -402 -22 -51 -58 -132 -80 -180 -65 -148 -211 -457
-219 -465 -11 -11 -131 242 -207 436 -70 180 -172 502 -162 512 7 8 203 68
276 85 156 37 326 48 469 29z m2124 -25 c88 -20 175 -45 275 -80 14 -5 -5 -80
-79 -305 -71 -217 -252 -640 -273 -640 -6 0 -55 102 -196 408 -133 287 -270
620 -258 627 51 32 376 26 531 -10z m-1698 -196 c36 -39 66 -77 66 -85 0 -7
-7 -57 -15 -111 -45 -286 -68 -396 -146 -718 -56 -232 -189 -678 -208 -698
-14 -14 -323 423 -337 478 -3 13 23 79 72 180 133 279 246 528 374 827 81 190
95 216 110 208 10 -5 47 -42 84 -81z m973 -25 c6 -16 37 -89 68 -162 56 -132
89 -208 245 -547 15 -33 62 -132 104 -219 l77 -159 -37 -61 c-54 -88 -178
-268 -247 -360 l-60 -79 -18 49 c-18 51 -55 171 -113 366 -37 124 -105 393
-131 518 -54 264 -85 438 -99 563 l-6 49 81 81 81 82 22 -46 c11 -26 26 -59
33 -75z m-5938 -234 c158 -156 375 -322 513 -391 26 -13 48 -27 48 -31 0 -14
-154 -116 -236 -157 -176 -88 -310 -121 -485 -121 -212 0 -380 56 -553 184
-77 57 -206 188 -206 209 0 20 197 224 297 308 48 41 90 77 93 80 10 11 157
117 218 156 l64 42 75 -92 c42 -51 119 -135 172 -187z m11101 202 c120 -82
263 -198 361 -293 87 -84 199 -207 199 -219 0 -4 -40 -48 -88 -96 -202 -204
-408 -294 -673 -294 -178 0 -306 32 -484 121 -55 27 -133 74 -174 104 l-73 54
48 24 c83 42 234 146 339 232 112 92 305 287 379 382 28 36 53 60 60 56 6 -3
54 -35 106 -71z m-8128 -159 c80 -107 164 -252 152 -262 -19 -17 -344 -101
-544 -140 -130 -26 -369 -61 -419 -61 l-55 0 110 63 c209 120 446 286 609 426
39 33 73 60 76 61 3 0 35 -39 71 -87z m4942 24 c150 -131 364 -281 589 -413
l117 -69 -41 -3 c-104 -8 -597 86 -869 166 -113 33 -113 33 -43 149 47 79 159
233 169 233 3 0 38 -29 78 -63z m-4129 -472 c54 -124 110 -240 185 -379 l51
-95 -127 -248 c-70 -136 -152 -293 -181 -348 -30 -55 -70 -133 -91 -172 -20
-40 -39 -73 -42 -73 -3 0 -18 10 -33 23 l-29 23 23 154 c19 132 22 197 23 435
0 300 -12 405 -67 617 l-23 87 35 15 c109 46 217 84 222 78 4 -4 28 -56 54
-117z m3324 85 c55 -22 104 -40 109 -40 4 0 16 -6 25 -12 16 -12 15 -20 -8
-113 -14 -55 -34 -160 -45 -233 -36 -240 -24 -685 26 -928 5 -25 2 -33 -20
-47 -14 -9 -27 -17 -30 -17 -2 0 -35 57 -72 128 -37 70 -75 141 -85 158 -9 17
-78 150 -153 296 l-135 264 21 35 c35 58 193 380 229 466 19 45 35 83 35 83 1
0 47 -18 103 -40z m-1889 -126 c0 -104 11 -138 56 -173 22 -17 41 -21 99 -21
58 0 77 4 99 21 41 33 56 71 57 151 1 40 4 87 8 103 5 26 8 21 20 -40 7 -38
33 -151 58 -250 25 -99 49 -198 54 -220 25 -101 110 -380 179 -583 23 -68 39
-129 37 -137 -3 -7 -39 -53 -81 -104 -84 -101 -166 -200 -330 -400 -60 -73
-112 -129 -116 -124 -3 4 -24 31 -46 58 -21 28 -41 52 -44 55 -6 6 -160 192
-240 291 -30 37 -83 101 -117 142 l-62 74 50 149 c57 166 129 400 160 514 53
193 119 471 135 562 11 66 24 30 24 -68z m1465 -909 c59 -115 145 -280 192
-366 l84 -157 -53 -51 c-51 -49 -55 -51 -112 -51 -94 0 -351 -46 -429 -76 -10
-3 -18 4 -25 23 -6 15 -29 73 -52 128 -40 96 -52 127 -86 222 l-15 42 69 88
c97 125 169 224 241 332 35 51 66 89 71 85 4 -5 56 -103 115 -219z m-2430 105
c64 -94 137 -192 237 -319 l67 -84 -21 -56 c-32 -86 -136 -343 -141 -347 -2
-3 -40 5 -83 16 -107 29 -296 60 -369 60 -57 1 -63 3 -110 45 l-49 45 27 52
c14 29 69 134 122 233 52 99 128 244 167 322 56 109 76 140 84 130 7 -6 38
-50 69 -97z m1801 -762 c30 -73 54 -137 54 -143 -1 -5 -18 -18 -38 -27 -102
-47 -282 -185 -391 -300 -30 -32 -58 -58 -62 -58 -4 0 -24 23 -45 51 -32 45
-36 54 -25 71 11 17 179 224 206 254 5 6 62 74 125 152 63 77 117 139 119 136
2 -2 28 -63 57 -136z m-1176 -30 c69 -83 130 -156 135 -162 13 -14 167 -203
179 -221 7 -9 -2 -27 -29 -62 -21 -26 -40 -50 -42 -52 -2 -3 -45 36 -96 85
-116 113 -227 198 -343 261 l-51 28 55 138 c31 75 58 137 62 137 3 0 62 -68
130 -152z m-642 -243 c29 -9 52 -17 52 -19 0 -12 -42 -96 -48 -96 -8 1 -92
114 -92 124 0 10 34 7 88 -9z m2346 3 c-7 -12 -72 -98 -79 -106 -2 -2 -13 15
-25 38 -24 46 -22 50 23 67 45 16 90 17 81 1z m-1899 -216 c73 -52 152 -123
218 -196 l57 -65 -58 -81 c-74 -103 -167 -251 -223 -357 -24 -46 -47 -83 -50
-83 -4 0 -10 15 -13 33 -18 98 -121 379 -186 507 l-30 59 34 73 c18 40 48 103
65 140 l31 68 52 -31 c29 -17 76 -47 103 -67z m1563 36 c16 -35 44 -93 62
-130 l33 -67 -62 -135 c-53 -117 -148 -385 -166 -470 -6 -28 -9 -26 -51 55
-65 120 -106 187 -201 327 l-83 123 19 27 c24 34 162 167 217 210 48 37 184
122 196 122 4 0 21 -28 36 -62z m-857 -210 c10 -13 30 -39 44 -59 l26 -36 -41
-83 c-22 -46 -40 -89 -40 -97 0 -31 -18 -7 -58 80 -23 50 -42 96 -42 101 0 11
78 116 86 116 3 0 14 -10 25 -22z m-262 -390 c65 -163 91 -327 91 -583 0 -203
-14 -316 -55 -448 -23 -75 -99 -231 -151 -309 -55 -82 -50 -83 -117 44 -204
389 -193 689 39 1096 66 114 156 252 165 252 4 0 16 -24 28 -52z m613 -102
c59 -94 140 -248 165 -311 87 -228 102 -386 53 -578 -24 -96 -60 -187 -116
-298 -69 -134 -65 -131 -108 -73 -45 62 -139 249 -165 332 -43 134 -56 237
-56 442 0 198 11 302 45 435 19 74 54 177 66 197 9 15 37 -20 116 -146z m-348
-1174 c23 -58 100 -189 164 -278 26 -36 51 -72 57 -79 6 -10 -23 -56 -108
-168 -65 -85 -123 -160 -130 -166 -10 -8 -41 26 -131 145 -65 86 -120 163
-123 173 -2 9 12 36 31 61 54 70 164 249 188 308 12 28 24 52 27 52 3 0 14
-21 25 -48z m-627 -309 l25 -42 -34 -47 -33 -46 -6 28 c-4 16 -7 65 -7 109 -1
89 1 89 55 -2z m1251 -78 l-3 -56 -37 44 -36 44 36 61 37 60 3 -48 c2 -27 2
-74 0 -105z m-1026 -249 c21 -30 76 -102 123 -161 56 -70 83 -111 78 -120 -19
-33 -187 -224 -194 -219 -7 4 -53 83 -101 174 -13 25 -38 80 -57 122 l-33 76
33 49 c43 64 99 133 107 133 4 0 24 -25 44 -54z m833 17 c43 -52 104 -146 101
-152 -1 -3 -10 -22 -18 -41 -47 -103 -84 -178 -125 -250 -39 -69 -48 -79 -61
-68 -21 18 -182 215 -182 223 0 4 40 57 88 118 48 62 103 133 122 160 18 26
36 47 39 47 3 0 20 -17 36 -37z m-326 -648 c37 -44 71 -86 75 -93 9 -15 -188
-272 -209 -272 -6 0 -182 221 -196 247 -10 19 -3 32 77 128 49 58 96 115 104
126 14 18 16 17 49 -19 18 -20 63 -73 100 -117z m-691 -49 c12 -21 17 -39 11
-47 -4 -7 -10 -11 -12 -9 -5 6 -37 89 -37 96 0 12 19 -8 38 -40z m1137 -20
c-11 -26 -20 -35 -27 -28 -7 7 -2 23 14 51 27 48 36 32 13 -23z m-1337 -235
c8 -23 7 -32 -4 -42 -12 -10 -14 -5 -14 30 0 49 4 51 18 12z m1542 -11 c0 -42
-14 -54 -25 -20 -5 17 9 60 20 60 3 0 5 -18 5 -40z m-1125 -42 c22 -29 68 -85
103 -126 34 -41 62 -79 62 -86 0 -13 -97 -112 -104 -105 -7 7 -87 149 -127
227 l-39 75 28 33 c15 18 29 33 32 33 3 1 24 -22 45 -51z m785 -23 c0 -9 -51
-105 -141 -263 l-24 -43 -52 58 c-44 49 -50 61 -40 75 7 9 55 69 107 133 l94
117 28 -33 c15 -18 28 -38 28 -44z m265 -300 c23 -29 23 -32 10 -90 -21 -96
-67 -252 -82 -280 -7 -11 -27 6 -91 74 -45 49 -82 92 -82 96 0 3 28 54 63 113
34 59 71 124 82 145 l20 38 28 -33 c16 -18 39 -47 52 -63z m-1278 -8 c29 -50
66 -115 83 -143 l30 -51 -81 -87 c-44 -47 -84 -86 -89 -86 -13 0 -100 295
-100 338 0 15 86 122 98 122 4 0 31 -42 59 -93z m641 -150 l62 -69 -32 -46
c-17 -26 -46 -65 -62 -87 -17 -22 -32 -42 -34 -45 -4 -6 -27 24 -88 112 l-47
67 64 70 c35 39 66 70 69 69 4 -2 34 -34 68 -71z m-953 -282 c26 -77 52 -145
57 -152 6 -8 -12 -39 -55 -98 -92 -124 -156 -236 -196 -340 -31 -83 -34 -99
-34 -200 0 -97 3 -117 25 -167 21 -46 24 -59 13 -68 -20 -17 -75 121 -102 255
-42 217 -2 465 116 705 47 94 119 215 125 209 2 -2 25 -67 51 -144z m1885 45
c163 -278 224 -574 170 -825 -10 -49 -29 -115 -40 -145 -12 -30 -26 -67 -32
-82 -5 -16 -14 -28 -18 -28 -20 0 -19 23 2 72 20 46 23 69 22 178 -1 134 -15
189 -82 315 -26 48 -142 223 -183 275 -19 25 -19 25 1 80 12 30 32 89 46 130
47 138 45 135 61 114 8 -11 32 -48 53 -84z m-1240 -125 l71 -96 -22 -27 c-60
-77 -204 -232 -213 -229 -5 2 -34 52 -64 111 l-54 107 24 27 c13 15 59 66 102
115 43 48 80 87 82 87 2 0 36 -43 74 -95z m626 18 c38 -43 84 -94 102 -115
l33 -37 -58 -111 c-31 -60 -61 -110 -64 -110 -4 0 -58 56 -119 125 -90 100
-111 130 -104 143 14 27 128 181 135 182 3 0 37 -35 75 -77z m-336 -378 c23
-27 80 -90 127 -138 l85 -89 -46 -66 c-75 -109 -108 -155 -164 -225 l-54 -67
-42 53 c-104 129 -219 293 -214 306 2 5 49 57 105 117 56 60 111 122 123 137
12 15 26 27 30 25 4 -2 26 -25 50 -53z m688 -57 c88 -136 136 -272 116 -332
-9 -25 -11 -24 -129 80 -66 58 -124 109 -128 113 -5 5 5 30 20 57 16 27 40 70
53 97 14 26 26 47 26 47 1 0 20 -28 42 -62z m-1385 -35 c26 -47 47 -91 46 -97
-1 -19 -238 -218 -250 -210 -22 13 -2 128 35 208 35 77 103 186 115 186 3 0
28 -39 54 -87z m210 -336 c7 -19 106 -155 187 -258 39 -49 70 -97 68 -104 -5
-22 -327 -355 -344 -355 -41 0 -329 226 -390 306 -25 33 -26 37 -11 46 53 29
398 309 441 357 22 24 41 27 49 8z m1027 -103 c74 -64 184 -152 244 -197 l108
-82 -109 -105 c-96 -92 -247 -207 -298 -226 -12 -5 -49 25 -142 117 -68 68
-147 150 -174 181 l-50 57 83 108 c115 150 163 214 177 241 6 12 15 22 19 22
4 -1 68 -53 142 -116z m-1673 -503 c78 -85 189 -180 291 -251 34 -24 62 -47
62 -51 0 -4 -20 -23 -45 -43 l-44 -37 -78 15 c-227 43 -374 102 -570 227 -13
7 -23 17 -23 20 0 4 48 34 108 67 59 33 132 77 162 96 30 20 57 36 59 36 2 0
37 -36 78 -79z m2288 50 c24 -16 98 -60 164 -97 l122 -69 -33 -27 c-97 -79
-365 -188 -551 -222 -97 -18 -92 -20 -154 38 l-32 29 69 48 c106 73 231 180
300 258 35 39 65 71 68 71 2 0 23 -13 47 -29z m-1113 -98 c52 -54 114 -118
137 -142 l42 -45 -23 -12 c-13 -6 -73 -28 -135 -49 l-112 -37 -98 31 c-54 18
-117 39 -140 48 l-42 15 137 144 c75 79 138 144 138 144 1 0 44 -44 96 -97z
m-1585 -378 c89 -50 223 -107 341 -145 39 -12 72 -25 71 -29 -1 -14 -470 -361
-488 -361 -14 0 -125 117 -204 215 -120 150 -252 354 -232 362 6 2 64 34 130
72 l120 67 90 -67 c50 -36 127 -88 172 -114z m3388 102 c119 -66 117 -64 103
-91 -57 -109 -244 -359 -355 -473 l-78 -82 -106 77 c-58 42 -170 126 -248 187
l-143 110 98 33 c55 18 110 37 124 41 97 32 375 196 429 255 27 29 14 33 176
-57z m-4060 -313 c104 -163 204 -292 320 -416 31 -33 53 -63 50 -68 -6 -10
-256 -170 -305 -195 l-31 -16 -85 78 c-107 96 -265 262 -346 361 l-62 75 40
35 c78 68 328 250 345 251 3 1 37 -47 74 -105z m4489 49 c44 -31 129 -94 189
-140 88 -69 105 -87 98 -101 -37 -67 -353 -395 -463 -482 l-28 -21 -57 34
c-32 18 -108 67 -170 107 l-112 73 76 81 c110 118 275 339 344 463 13 24 28
43 33 43 4 0 45 -25 90 -57z m-2491 -110 c12 -47 17 -106 17 -193 0 -136 -16
-215 -66 -328 -31 -73 -44 -80 -189 -114 -125 -29 -395 -31 -505 -4 -113 28
-203 61 -309 116 -165 86 -167 65 26 209 92 69 233 178 314 243 l147 118 204
1 c111 0 226 4 253 9 94 14 89 17 108 -57z m656 50 l244 -5 106 -87 c107 -88
334 -263 449 -346 34 -25 62 -48 62 -52 -1 -21 -204 -124 -317 -162 -143 -48
-192 -55 -373 -55 -177 1 -199 4 -361 50 -51 15 -57 20 -77 63 -76 163 -103
363 -68 501 7 30 17 68 20 84 6 26 10 28 39 21 18 -3 142 -9 276 -12z m-3214
-451 c44 -53 141 -158 216 -233 l137 -136 -47 -21 c-132 -60 -174 -77 -261
-109 -117 -43 -250 -80 -367 -102 l-43 -8 -6 35 c-11 57 3 203 26 267 34 96
98 207 177 310 40 52 77 95 81 94 4 0 43 -44 87 -97z m5646 -39 c131 -181 200
-394 173 -532 -8 -39 -18 -39 -160 -5 -147 34 -263 74 -427 146 l-138 61 153
156 c85 86 182 191 217 234 l63 78 30 -28 c16 -15 57 -65 89 -110z m-4216
-333 c198 -95 377 -139 581 -143 74 -1 134 -3 134 -5 0 -9 -158 -74 -240 -98
-90 -27 -105 -29 -285 -28 -166 0 -201 3 -275 23 -138 37 -304 98 -365 136
-11 7 -51 29 -88 49 l-68 38 73 46 c40 26 111 72 157 103 l83 57 97 -65 c53
-36 141 -87 196 -113z m3172 -37 c-23 -22 -223 -122 -305 -152 -157 -58 -267
-81 -412 -88 -149 -6 -268 6 -368 37 -58 18 -212 85 -212 92 0 2 60 4 132 5
271 5 522 88 777 257 l95 63 153 -101 c118 -78 150 -104 140 -113z"/>
<path d="M5810 18242 c-104 -34 -205 -115 -263 -209 -50 -79 -67 -152 -67
-278 0 -125 -8 -158 -55 -213 -42 -50 -93 -72 -170 -72 -66 0 -101 12 -157 53
-41 30 -120 20 -161 -21 -26 -26 -31 -39 -31 -80 0 -63 20 -93 90 -138 79 -51
161 -74 258 -74 226 0 405 137 470 360 11 37 16 91 15 168 -1 109 1 116 28
160 39 63 107 105 181 110 50 3 65 0 125 -32 98 -53 168 -47 207 16 22 37 26
101 7 135 -18 31 -57 59 -134 96 -62 29 -78 32 -178 34 -85 2 -123 -1 -165
-15z"/>
<path d="M14085 18168 c-49 -46 -63 -123 -42 -236 21 -109 60 -184 133 -257
91 -91 219 -145 344 -145 70 0 178 31 237 67 25 15 61 38 81 50 88 53 199 36
271 -42 52 -57 61 -80 61 -161 0 -107 45 -164 128 -164 57 0 105 34 123 87 18
55 6 186 -25 264 -109 270 -428 383 -684 242 -26 -14 -54 -32 -62 -39 -76 -65
-218 -55 -293 22 -48 48 -61 82 -62 169 -3 125 -41 175 -135 175 -32 0 -48 -7
-75 -32z"/>
<path d="M4528 17401 c-69 -15 -163 -69 -225 -131 -112 -112 -160 -262 -133
-417 31 -183 22 -233 -56 -301 -75 -67 -160 -77 -260 -32 -51 24 -76 25 -112
6 -72 -38 -99 -112 -64 -175 27 -50 104 -90 207 -107 76 -13 95 -13 165 0 152
29 283 125 346 256 54 112 66 209 39 330 -34 154 -1 245 110 303 50 25 146 27
193 3 70 -36 154 -10 186 59 35 74 -10 151 -110 189 -54 20 -223 30 -286 17z"/>
<path d="M15485 17370 c-59 -24 -95 -113 -95 -235 0 -238 169 -434 408 -476
90 -15 187 -1 281 42 79 36 157 39 216 8 108 -57 138 -127 120 -284 -5 -51 -3
-65 15 -93 44 -71 144 -79 200 -16 40 46 45 69 45 199 0 107 -2 112 -39 192
-82 174 -253 283 -440 283 -69 -1 -95 -8 -246 -65 -95 -36 -209 2 -267 88 -41
62 -50 118 -29 191 16 54 16 59 -3 101 -28 64 -100 93 -166 65z"/>
<path d="M3380 16332 c-300 -84 -447 -386 -324 -668 52 -120 42 -211 -30 -286
-59 -61 -76 -65 -283 -55 -47 2 -56 -1 -84 -29 -59 -59 -48 -161 22 -203 17
-11 66 -24 109 -31 236 -37 459 102 536 332 28 84 23 225 -10 313 -43 111 -49
137 -43 187 7 56 25 93 64 132 58 59 155 82 232 55 26 -9 41 -8 76 6 80 30
109 117 62 186 -45 67 -202 96 -327 61z"/>
<path d="M16690 16322 c-44 -22 -75 -68 -100 -150 -64 -208 30 -443 223 -556
102 -60 252 -82 353 -51 62 19 145 19 188 1 43 -18 102 -78 121 -123 21 -50
19 -122 -6 -187 -19 -49 -20 -62 -10 -96 17 -56 61 -90 118 -90 64 0 97 24
127 89 52 118 59 209 26 325 -60 212 -248 356 -465 356 -40 0 -94 -7 -121 -15
-114 -35 -218 -3 -279 85 -40 58 -47 149 -16 219 26 62 27 107 1 149 -20 32
-71 62 -107 62 -10 0 -34 -8 -53 -18z"/>
<path d="M2435 15082 c-91 -24 -140 -50 -207 -111 -112 -103 -158 -205 -158
-355 0 -108 23 -189 77 -269 80 -118 83 -223 11 -312 -48 -57 -99 -79 -195
-80 -67 -1 -88 -5 -110 -21 -78 -58 -67 -176 20 -217 47 -23 174 -22 247 1
236 74 380 302 341 539 -9 53 -24 99 -48 143 -84 153 -93 173 -93 214 0 46 30
119 63 155 39 42 115 71 186 71 99 0 151 44 151 126 0 110 -120 158 -285 116z"/>
<path d="M17698 15086 c-39 -21 -72 -61 -106 -131 -123 -252 -6 -553 259 -661
57 -24 79 -27 194 -28 111 -2 136 -5 170 -23 85 -45 124 -110 125 -205 0 -45
-7 -69 -35 -122 -38 -73 -43 -102 -20 -146 25 -47 62 -70 116 -70 43 0 53 4
87 38 66 66 112 191 112 302 0 164 -95 334 -233 414 -89 53 -153 68 -287 70
-141 2 -164 10 -222 74 -72 80 -77 180 -15 281 42 68 47 110 17 158 -35 57
-105 78 -162 49z"/>
<path d="M1690 13676 c-98 -34 -129 -54 -196 -120 -186 -187 -189 -475 -8
-671 100 -108 119 -194 66 -296 -35 -68 -94 -107 -180 -119 -74 -10 -98 -22
-122 -63 -41 -66 -13 -154 58 -184 31 -13 49 -14 115 -5 199 29 349 166 401
367 41 156 -5 315 -133 458 -69 77 -86 124 -77 205 12 102 88 177 191 191 90
12 138 60 138 135 0 112 -106 155 -253 102z"/>
<path d="M18423 13648 c-30 -29 -66 -72 -80 -96 -76 -130 -86 -312 -23 -447
71 -154 209 -254 386 -279 102 -14 153 -35 191 -80 38 -45 53 -88 53 -148 0
-62 -23 -116 -74 -176 -29 -35 -36 -52 -36 -85 0 -74 50 -126 123 -127 48 0
85 19 125 64 167 190 161 473 -15 657 -84 88 -188 135 -343 154 -192 23 -264
254 -121 389 60 58 60 150 0 200 -24 20 -41 26 -80 26 -47 0 -54 -4 -106 -52z"/>
<path d="M19030 12190 c-20 -3 -56 -20 -80 -37 -238 -165 -269 -517 -66 -727
63 -64 127 -102 223 -131 132 -41 193 -112 193 -226 -1 -73 -27 -127 -88 -178
-73 -62 -91 -125 -52 -188 45 -75 126 -81 214 -15 229 173 248 524 39 723 -65
62 -122 94 -226 129 -118 38 -181 115 -181 220 0 70 40 148 96 185 46 31 78
79 78 118 0 83 -69 141 -150 127z"/>
<path d="M1197 12169 c-148 -58 -265 -199 -297 -356 -36 -171 39 -369 179
-476 123 -94 158 -172 127 -281 -22 -76 -74 -126 -163 -157 -52 -19 -73 -32
-90 -58 -45 -66 -18 -157 54 -188 32 -13 46 -13 93 -3 175 38 324 188 361 361
16 76 6 222 -20 287 -26 66 -89 152 -138 189 -128 98 -159 149 -151 252 3 43
12 71 32 101 30 46 108 100 143 100 12 0 38 15 56 34 57 57 57 125 0 182 -30
30 -39 34 -86 33 -29 -1 -74 -10 -100 -20z"/>
<path d="M962 10594 c-111 -54 -210 -175 -247 -301 -25 -86 -27 -135 -11 -213
34 -161 128 -284 269 -353 88 -43 130 -87 152 -159 31 -106 -25 -222 -131
-269 -72 -32 -103 -90 -84 -159 23 -86 113 -114 212 -65 117 57 202 157 245
288 73 225 -34 469 -255 581 -78 40 -113 73 -141 136 -48 105 0 230 110 285
111 57 122 187 19 240 -41 21 -77 18 -138 -11z"/>
<path d="M19210 10587 c-130 -65 -223 -190 -255 -341 -42 -206 68 -426 261
-520 71 -35 119 -77 146 -130 16 -31 19 -53 16 -105 -5 -83 -39 -141 -105
-179 -98 -57 -129 -115 -99 -185 31 -76 118 -97 208 -51 150 76 258 254 258
425 0 185 -111 356 -290 444 -68 33 -96 59 -121 107 -62 121 -13 252 119 317
50 26 82 72 82 121 0 68 -61 130 -127 130 -15 0 -57 -15 -93 -33z"/>
<path d="M1011 9008 c-112 -55 -213 -208 -229 -344 -14 -124 14 -247 77 -338
70 -100 152 -158 286 -200 89 -28 142 -71 170 -138 39 -94 2 -209 -86 -273
-57 -41 -73 -72 -66 -135 4 -36 12 -51 43 -77 63 -55 124 -43 221 42 129 113
190 306 148 470 -47 178 -170 302 -355 357 -140 41 -207 146 -179 278 10 46
21 63 80 122 80 80 92 115 63 174 -37 74 -103 97 -173 62z"/>
<path d="M19175 8997 c-264 -98 -387 -405 -266 -660 32 -67 93 -137 190 -216
30 -25 61 -62 72 -85 54 -119 -19 -269 -148 -308 -85 -25 -128 -96 -103 -172
25 -77 94 -100 195 -66 174 58 291 198 327 390 17 96 -9 217 -68 316 -45 75
-75 106 -147 156 -171 117 -132 353 69 414 100 30 141 114 94 191 -39 65 -111
78 -215 40z"/>
<path d="M1314 7446 c-75 -34 -167 -190 -183 -312 -20 -153 29 -295 138 -405
84 -83 150 -115 295 -140 89 -16 118 -26 146 -48 74 -59 106 -142 88 -226 -9
-43 -17 -57 -85 -146 -75 -97 -5 -222 114 -204 36 5 54 16 96 60 121 122 167
307 116 471 -58 187 -201 309 -398 340 -113 18 -130 23 -169 52 -57 43 -86
105 -86 183 0 70 8 88 80 176 21 26 26 43 26 84 0 45 -4 55 -34 86 -40 40 -95
51 -144 29z"/>
<path d="M18849 7436 c-158 -44 -286 -173 -330 -334 -48 -172 -5 -335 127
-481 79 -88 96 -145 70 -234 -9 -30 -28 -70 -43 -88 -34 -40 -116 -79 -167
-79 -31 0 -46 -7 -77 -39 -33 -33 -39 -45 -39 -83 0 -44 17 -78 55 -110 27
-23 135 -24 201 -1 165 56 291 193 325 354 7 30 9 94 7 146 -5 82 -10 103 -41
166 -20 40 -63 102 -95 139 -33 37 -66 84 -73 105 -36 109 17 236 117 279 17
7 60 18 94 23 72 12 105 36 120 90 13 49 -3 103 -41 135 -26 23 -39 26 -97 25
-37 0 -88 -7 -113 -13z"/>
<path d="M1892 5959 c-37 -11 -80 -65 -120 -149 -23 -50 -26 -67 -26 -185 l-1
-130 40 -79 c92 -185 256 -279 480 -274 80 1 108 -2 139 -17 117 -56 166 -193
108 -302 -66 -123 -66 -122 -46 -172 16 -37 28 -50 66 -69 42 -21 51 -22 84
-12 95 32 177 195 177 350 0 181 -107 355 -268 434 -71 34 -135 46 -257 46
-109 0 -154 13 -201 58 -53 51 -70 89 -70 161 -1 58 4 75 38 139 35 67 37 75
27 110 -23 74 -95 113 -170 91z"/>
<path d="M18240 5954 c-149 -40 -255 -126 -323 -262 l-42 -85 1 -121 c0 -137
12 -178 84 -289 49 -75 54 -91 48 -166 -5 -71 -39 -128 -99 -168 -33 -22 -56
-28 -130 -33 -104 -8 -137 -25 -157 -86 -17 -50 -4 -99 38 -139 26 -25 40 -30
96 -33 217 -14 419 121 490 328 14 41 19 81 18 160 -1 118 -21 182 -87 278
-88 129 -56 282 73 347 41 21 64 25 131 25 78 0 82 1 114 33 63 63 52 157 -23
201 -44 24 -158 29 -232 10z"/>
<path d="M17345 4595 c-81 -23 -153 -65 -213 -125 -96 -96 -142 -208 -142
-344 1 -80 2 -88 65 -261 35 -95 -11 -208 -105 -259 -53 -29 -98 -34 -191 -21
-71 9 -110 -11 -139 -71 -53 -109 45 -194 224 -194 185 0 348 104 433 277 38
77 38 77 38 202 0 122 -1 129 -34 201 -42 92 -46 164 -14 226 47 90 155 145
244 125 72 -17 123 -13 153 10 33 26 56 69 56 106 0 34 -39 94 -71 110 -71 34
-214 42 -304 18z"/>
<path d="M2713 4593 c-33 -7 -80 -66 -99 -125 -23 -74 -29 -198 -14 -267 37
-164 161 -299 331 -357 69 -23 215 -23 278 0 58 21 106 20 161 -5 56 -25 86
-53 113 -104 28 -52 29 -155 3 -204 -22 -41 -23 -114 -2 -146 39 -59 141 -72
192 -24 64 60 100 207 83 340 -22 175 -157 334 -331 390 -75 24 -216 26 -278
4 -133 -47 -269 30 -301 169 -10 47 -9 61 10 119 30 95 28 130 -11 172 -34 35
-83 49 -135 38z"/>
<path d="M16250 3416 c-141 -39 -250 -130 -314 -260 -34 -70 -39 -90 -43 -175
-4 -70 -1 -113 11 -159 20 -79 20 -108 1 -163 -44 -124 -187 -183 -310 -128
-107 47 -211 -27 -191 -136 10 -51 40 -80 108 -108 290 -115 609 70 657 380
12 72 11 89 -8 181 -17 83 -19 110 -10 150 13 61 66 127 123 153 54 25 139 24
195 -1 24 -11 61 -20 83 -20 33 0 47 7 79 39 33 33 39 45 39 82 0 82 -54 130
-185 165 -61 17 -174 17 -235 0z"/>
<path d="M3723 3366 c-47 -40 -65 -95 -64 -206 0 -141 35 -231 130 -333 128
-138 335 -188 506 -122 125 48 162 55 215 44 135 -29 207 -158 168 -303 -23
-88 31 -160 120 -160 100 0 145 75 145 244 0 96 -3 111 -33 184 -27 65 -47 93
-104 151 -156 157 -343 187 -573 91 -71 -30 -118 -33 -170 -11 -115 48 -167
148 -144 271 20 102 -21 164 -112 172 -46 4 -57 1 -84 -22z"/>
<path d="M14991 2450 c-113 -17 -239 -101 -311 -206 -56 -81 -73 -144 -80
-299 -5 -130 -8 -143 -33 -182 -33 -52 -86 -89 -147 -102 -56 -12 -98 -3 -175
38 -47 26 -68 32 -98 28 -51 -7 -86 -32 -104 -74 -39 -96 40 -187 204 -233
220 -64 454 39 557 243 44 87 60 169 52 261 -8 92 12 155 69 211 51 52 99 69
176 63 47 -3 69 -11 107 -38 39 -28 56 -34 101 -34 49 0 56 3 88 38 33 36 35
41 31 94 -5 51 -9 59 -49 94 -92 80 -250 120 -388 98z"/>
<path d="M4970 2366 c-55 -37 -62 -59 -58 -177 3 -94 7 -111 39 -179 124 -262
447 -358 689 -206 117 74 178 89 245 62 114 -48 160 -114 158 -230 -1 -86 20
-136 71 -160 46 -22 77 -20 117 7 49 33 69 79 69 162 0 221 -132 399 -348 470
-40 13 -77 16 -150 13 -110 -4 -183 -29 -276 -93 -96 -66 -220 -58 -297 18
-49 49 -69 101 -69 183 0 57 -4 77 -21 98 -46 58 -112 71 -169 32z"/>
<path d="M13485 1699 c-191 -66 -304 -219 -330 -449 -22 -186 -233 -267 -376
-143 -47 41 -72 53 -112 53 -74 0 -132 -72 -121 -150 9 -70 134 -166 263 -204
152 -45 360 12 467 126 75 80 134 204 134 284 0 93 47 176 130 227 26 16 50
21 100 21 74 0 113 -17 176 -74 53 -49 90 -57 147 -32 67 30 96 107 63 171
-32 61 -138 138 -235 171 -83 28 -223 27 -306 -1z"/>
<path d="M6362 1590 c-52 -32 -67 -79 -53 -167 40 -265 303 -453 558 -399 102
21 169 55 245 124 37 34 81 68 97 77 43 22 152 20 199 -4 73 -38 122 -113 122
-187 0 -54 36 -110 82 -129 48 -19 59 -19 100 1 57 27 73 59 72 140 -2 123
-52 231 -150 326 -97 92 -223 135 -369 125 -120 -9 -227 -59 -305 -142 -44
-47 -122 -85 -175 -85 -53 0 -133 38 -172 83 -30 34 -53 90 -53 130 0 64 -64
127 -130 127 -19 0 -50 -9 -68 -20z"/>
<path d="M11984 1240 c-152 -30 -298 -170 -349 -333 -34 -107 -61 -146 -125
-181 -103 -56 -199 -34 -292 67 l-56 62 -57 0 c-53 0 -59 -3 -91 -37 -29 -32
-34 -45 -34 -87 0 -42 6 -56 39 -99 161 -204 434 -252 647 -114 99 64 159 145
198 266 34 104 51 132 97 166 58 42 130 55 197 35 55 -17 126 -71 137 -105 8
-27 66 -60 104 -60 44 0 88 25 111 63 40 65 20 128 -70 221 -116 121 -281 170
-456 136z"/>
<path d="M8740 1117 c-97 -33 -152 -69 -217 -144 -106 -121 -131 -141 -189
-153 -53 -11 -111 -6 -149 12 -48 24 -105 92 -120 144 -33 112 -151 148 -226
68 -20 -21 -24 -36 -24 -88 0 -85 46 -178 129 -260 193 -193 512 -185 691 17
22 24 55 63 74 87 81 100 234 109 327 19 32 -31 57 -80 68 -130 7 -34 60 -86
94 -92 71 -14 143 30 156 93 8 42 -9 112 -46 187 -100 203 -358 312 -568 240z"/>
<path d="M10427 1048 c-154 -18 -294 -121 -372 -273 -42 -83 -89 -129 -145
-145 -116 -32 -224 16 -280 125 -27 52 -66 78 -120 78 -50 0 -94 -26 -114 -67
-23 -50 -20 -81 17 -149 70 -133 207 -229 355 -250 212 -30 405 75 510 278 34
65 52 87 93 115 45 31 57 34 117 34 106 -1 165 -39 215 -139 29 -57 69 -85
122 -85 113 0 158 110 94 231 -93 174 -285 270 -492 247z"/>
</g>
</svg>
